<svg width="815" height="176" viewBox="0 0 815 176" fill="none" xmlns="http://www.w3.org/2000/svg">
<rect x="50" y="30" width="281" height="116" rx="10" fill="#2C2C2C"/>
<path d="M121.828 59.3281C123.109 59.3281 124.016 59.5625 124.547 60.0312C125.078 60.5 125.344 61.2812 125.344 62.375V77.8438C125.344 78.9375 125.078 79.7188 124.547 80.1875C124.016 80.6562 123.109 80.8906 121.828 80.8906C120.547 80.8906 119.641 80.6562 119.109 80.1875C118.578 79.7188 118.312 78.9375 118.312 77.8438C118.312 75.7188 117.828 73.7812 116.859 72.0312C115.922 70.2812 114.469 68.8906 112.5 67.8594C110.531 66.7969 108.094 66.2656 105.188 66.2656C101.812 66.2656 98.8125 67.1562 96.1875 68.9375C93.5938 70.7188 91.5625 73.2656 90.0938 76.5781C88.6562 79.8906 87.9375 83.7656 87.9375 88.2031C87.9375 92.6406 88.625 96.5156 90 99.8281C91.375 103.109 93.3281 105.641 95.8594 107.422C98.3906 109.203 101.344 110.094 104.719 110.094C107.812 110.094 110.766 109.641 113.578 108.734C116.391 107.828 118.922 106.516 121.172 104.797C121.703 104.359 122.281 104.141 122.906 104.141C123.844 104.141 124.672 104.75 125.391 105.969C125.953 106.906 126.234 107.734 126.234 108.453C126.234 109.391 125.75 110.203 124.781 110.891C121.875 112.922 118.703 114.453 115.266 115.484C111.859 116.516 108.344 117.031 104.719 117.031C99.8438 117.031 95.5781 115.844 91.9219 113.469C88.2969 111.062 85.4844 107.688 83.4844 103.344C81.5156 99 80.5312 93.9531 80.5312 88.2031C80.5312 82.4844 81.5469 77.4531 83.5781 73.1094C85.6094 68.7344 88.4531 65.3438 92.1094 62.9375C95.7969 60.5312 100 59.3281 104.719 59.3281C107.656 59.3281 110.266 59.8281 112.547 60.8281C114.828 61.8281 116.75 63.25 118.312 65.0938V62.375C118.312 61.2812 118.578 60.5 119.109 60.0312C119.641 59.5625 120.547 59.3281 121.828 59.3281ZM161.344 71.6562C165.625 71.6562 169.484 72.625 172.922 74.5625C176.359 76.5 179.047 79.2031 180.984 82.6719C182.953 86.1094 183.938 90 183.938 94.3438C183.938 98.6875 182.953 102.594 180.984 106.062C179.047 109.5 176.359 112.188 172.922 114.125C169.484 116.062 165.625 117.031 161.344 117.031C157.062 117.031 153.203 116.062 149.766 114.125C146.328 112.188 143.625 109.5 141.656 106.062C139.719 102.594 138.75 98.6875 138.75 94.3438C138.75 90 139.719 86.1094 141.656 82.6719C143.625 79.2031 146.328 76.5 149.766 74.5625C153.203 72.625 157.062 71.6562 161.344 71.6562ZM161.344 78.5938C158.312 78.5938 155.641 79.2656 153.328 80.6094C151.047 81.9219 149.281 83.7812 148.031 86.1875C146.781 88.5625 146.156 91.2812 146.156 94.3438C146.156 97.4062 146.781 100.141 148.031 102.547C149.281 104.922 151.047 106.781 153.328 108.125C155.641 109.438 158.312 110.094 161.344 110.094C164.375 110.094 167.031 109.438 169.312 108.125C171.625 106.781 173.406 104.922 174.656 102.547C175.906 100.141 176.531 97.4062 176.531 94.3438C176.531 91.2812 175.906 88.5625 174.656 86.1875C173.406 83.7812 171.625 81.9219 169.312 80.6094C167.031 79.2656 164.375 78.5938 161.344 78.5938ZM235.266 54.5C236.328 54.5 237.078 54.75 237.516 55.25C237.984 55.7188 238.219 56.5312 238.219 57.6875V109.625H242.062C243.125 109.625 243.875 109.875 244.312 110.375C244.781 110.844 245.016 111.656 245.016 112.812C245.016 113.969 244.781 114.797 244.312 115.297C243.875 115.766 243.125 116 242.062 116H234.609C233.547 116 232.781 115.766 232.312 115.297C231.875 114.797 231.656 113.969 231.656 112.812V109.062C229.688 111.625 227.406 113.594 224.812 114.969C222.219 116.344 219.391 117.031 216.328 117.031C212.453 117.031 208.984 116.125 205.922 114.312C202.859 112.469 200.453 109.844 198.703 106.438C196.953 103 196.078 98.9688 196.078 94.3438C196.078 89.7188 196.953 85.7031 198.703 82.2969C200.453 78.8594 202.859 76.2344 205.922 74.4219C208.984 72.5781 212.453 71.6562 216.328 71.6562C222.203 71.6562 227.156 74.2344 231.188 79.3906V60.875H223.594C222.531 60.875 221.766 60.6406 221.297 60.1719C220.859 59.6719 220.641 58.8438 220.641 57.6875C220.641 56.5312 220.859 55.7188 221.297 55.25C221.766 54.75 222.531 54.5 223.594 54.5H235.266ZM216.797 78.5938C214.016 78.5938 211.625 79.2656 209.625 80.6094C207.625 81.9219 206.094 83.7656 205.031 86.1406C204 88.5156 203.484 91.25 203.484 94.3438C203.484 97.4375 204 100.172 205.031 102.547C206.094 104.922 207.625 106.781 209.625 108.125C211.625 109.438 214.016 110.094 216.797 110.094C219.578 110.094 222.047 109.469 224.203 108.219C226.391 106.969 228.094 105.156 229.312 102.781C230.562 100.406 231.188 97.5938 231.188 94.3438C231.188 91.0938 230.562 88.2812 229.312 85.9062C228.094 83.5312 226.391 81.7188 224.203 80.4688C222.047 79.2188 219.578 78.5938 216.797 78.5938ZM276.891 71.6562C281.422 71.6562 285.281 72.5781 288.469 74.4219C291.688 76.2344 294.156 78.7656 295.875 82.0156C297.594 85.2344 298.578 88.9531 298.828 93.1719C298.828 94.2344 298.594 94.9844 298.125 95.4219C297.688 95.8594 296.938 96.0781 295.875 96.0781H261.938C262.156 100.734 263.531 104.266 266.062 106.672C268.625 109.047 272.234 110.234 276.891 110.234C279.766 110.234 282.609 109.875 285.422 109.156C288.234 108.406 290.703 107.422 292.828 106.203C293.359 105.922 293.844 105.781 294.281 105.781C295.375 105.781 296.266 106.609 296.953 108.266C297.234 108.922 297.375 109.516 297.375 110.047C297.375 111.297 296.688 112.266 295.312 112.953C292.906 114.172 290.062 115.156 286.781 115.906C283.5 116.656 280.203 117.031 276.891 117.031C272.172 117.031 268.141 116.125 264.797 114.312C261.453 112.5 258.906 109.891 257.156 106.484C255.406 103.078 254.531 99.0312 254.531 94.3438C254.531 89.875 255.484 85.9219 257.391 82.4844C259.297 79.0469 261.938 76.3906 265.312 74.5156C268.688 72.6094 272.547 71.6562 276.891 71.6562ZM276.891 78.4531C273.047 78.4531 269.859 79.4375 267.328 81.4062C264.828 83.3438 263.188 86.0469 262.406 89.5156H291.047C290.391 85.9219 288.875 83.1875 286.5 81.3125C284.156 79.4062 280.953 78.4531 276.891 78.4531Z" fill="#DCDCDC"/>
<path d="M349.271 98.1035V89.832H375.536V98.1035H349.271ZM408.354 127.913C404.057 127.913 400.637 126.66 398.095 124.153C395.588 121.611 394.335 117.565 394.335 112.015V76.7266H385.15V68.8848H394.335V54.8662H404.916V68.8848H417.538V76.7266H404.916V112.015C404.916 114.808 405.471 116.867 406.581 118.191C407.691 119.516 409.177 120.179 411.039 120.179C412.292 120.179 413.689 120.071 415.229 119.856C416.768 119.606 417.968 119.391 418.827 119.212L420.277 126.141C418.738 126.606 416.84 127.018 414.584 127.376C412.364 127.734 410.287 127.913 408.354 127.913ZM452.235 128.128C446.864 128.128 442.227 126.875 438.324 124.368C434.457 121.826 431.467 118.335 429.354 113.895C427.242 109.419 426.186 104.316 426.186 98.5869V97.4053C426.186 91.6761 427.242 86.5915 429.354 82.1514C431.467 77.6755 434.457 74.1663 438.324 71.624C442.227 69.0817 446.828 67.8105 452.128 67.8105C457.499 67.8105 462.118 69.0817 465.985 71.624C469.888 74.1663 472.896 77.6576 475.009 82.0977C477.121 86.5378 478.178 91.6403 478.178 97.4053V98.5869C478.178 104.352 477.121 109.472 475.009 113.948C472.896 118.388 469.906 121.862 466.039 124.368C462.172 126.875 457.571 128.128 452.235 128.128ZM452.235 119.856C455.601 119.856 458.412 118.943 460.668 117.117C462.96 115.255 464.678 112.731 465.824 109.544C467.006 106.321 467.597 102.669 467.597 98.5869V97.4053C467.597 93.3232 467.006 89.6888 465.824 86.502C464.678 83.2793 462.96 80.7549 460.668 78.9287C458.376 77.0667 455.53 76.1357 452.128 76.1357C448.762 76.1357 445.933 77.0667 443.642 78.9287C441.35 80.7549 439.631 83.2793 438.485 86.502C437.34 89.6888 436.767 93.3232 436.767 97.4053V98.5869C436.767 102.669 437.34 106.321 438.485 109.544C439.631 112.731 441.35 115.255 443.642 117.117C445.969 118.943 448.834 119.856 452.235 119.856ZM490.639 98.1035V89.832H516.903V98.1035H490.639Z" fill="white"/>
<rect width="229" height="110" transform="translate(536 33)" fill="#CD0E16"/>
<path d="M562.068 123V53.1818H589.614C594.909 53.1818 599.42 54.1932 603.148 56.2159C606.875 58.2159 609.716 61 611.67 64.5682C613.648 68.1136 614.636 72.2045 614.636 76.8409C614.636 81.4773 613.636 85.5682 611.636 89.1136C609.636 92.6591 606.739 95.4205 602.943 97.3977C599.17 99.375 594.602 100.364 589.239 100.364H571.682V88.5341H586.852C589.693 88.5341 592.034 88.0455 593.875 87.0682C595.739 86.0682 597.125 84.6932 598.034 82.9432C598.966 81.1705 599.432 79.1364 599.432 76.8409C599.432 74.5227 598.966 72.5 598.034 70.7727C597.125 69.0227 595.739 67.6705 593.875 66.7159C592.011 65.7386 589.648 65.25 586.784 65.25H576.83V123H562.068ZM648.974 123H624.224V53.1818H649.179C656.202 53.1818 662.247 54.5795 667.315 57.375C672.384 60.1477 676.281 64.1364 679.009 69.3409C681.759 74.5455 683.134 80.7727 683.134 88.0227C683.134 95.2955 681.759 101.545 679.009 106.773C676.281 112 672.361 116.011 667.247 118.807C662.156 121.602 656.065 123 648.974 123ZM638.986 110.352H648.361C652.724 110.352 656.395 109.58 659.372 108.034C662.372 106.466 664.622 104.045 666.122 100.773C667.645 97.4773 668.406 93.2273 668.406 88.0227C668.406 82.8636 667.645 78.6477 666.122 75.375C664.622 72.1023 662.384 69.6932 659.406 68.1477C656.429 66.6023 652.759 65.8295 648.395 65.8295H638.986V110.352ZM694.068 123V53.1818H740.295V65.3523H708.83V81.9886H737.227V94.1591H708.83V123H694.068Z" fill="white"/>
</svg>
